<svg width="36" height="36" viewBox="0 0 36 36" fill="none" xmlns="http://www.w3.org/2000/svg">
<g opacity="0.0638959">
<circle cx="18" cy="18" r="15" fill="black" style="mix-blend-mode:multiply"/>
</g>
<g opacity="0.4">
<path fill-rule="evenodd" clip-rule="evenodd" d="M19.125 10C19.125 9.44772 18.6773 9 18.125 9H17.875C17.3227 9 16.875 9.44772 16.875 10V16.875H10C9.44772 16.875 9 17.3227 9 17.875V18.125C9 18.6773 9.44772 19.125 10 19.125H16.875V26C16.875 26.5523 17.3227 27 17.875 27H18.125C18.6773 27 19.125 26.5523 19.125 26V19.125H26C26.5523 19.125 27 18.6773 27 18.125V17.875C27 17.3227 26.5523 16.875 26 16.875H19.125V10Z" fill="black" style="mix-blend-mode:multiply"/>
</g>
</svg>
