<svg width="24" height="24" viewBox="0 0 24 24" fill="none" xmlns="http://www.w3.org/2000/svg">
<path fill-rule="evenodd" clip-rule="evenodd" d="M18 13.6794C18 14.2341 18.4477 14.6838 19 14.6838C20.1046 14.6838 21 15.5832 21 16.6927C21 17.8022 20.1046 18.7016 19 18.7016L2 18.7016C1.44772 18.7016 1 19.1513 1 19.706C1 20.2608 1.44772 20.7105 2 20.7105H19C21.2091 20.7105 23 18.9117 23 16.6927C23 14.4737 21.2091 12.6749 19 12.6749C18.4477 12.6749 18 13.1246 18 13.6794Z" fill="#666666"/>
<path d="M19 18.7016V18.5516V18.7016ZM2 18.7016V18.8516H2L2 18.7016ZM19 14.5338C18.5312 14.5338 18.15 14.1519 18.15 13.6794H17.85C17.85 14.3163 18.3642 14.8338 19 14.8338V14.5338ZM21.15 16.6927C21.15 15.501 20.188 14.5338 19 14.5338V14.8338C20.0211 14.8338 20.85 15.6654 20.85 16.6927H21.15ZM19 18.8516C20.188 18.8516 21.15 17.8844 21.15 16.6927H20.85C20.85 17.72 20.0211 18.5516 19 18.5516V18.8516ZM2 18.8516L19 18.8516V18.5516L2 18.5516L2 18.8516ZM1.15 19.706C1.15 19.2335 1.53118 18.8516 2 18.8516V18.5516C1.36425 18.5516 0.85 19.0691 0.85 19.706H1.15ZM2 20.5605C1.53118 20.5605 1.15 20.1786 1.15 19.706H0.85C0.85 20.343 1.36425 20.8605 2 20.8605V20.5605ZM19 20.5605H2V20.8605H19V20.5605ZM22.85 16.6927C22.85 18.8294 21.1257 20.5605 19 20.5605V20.8605C21.2926 20.8605 23.15 18.9939 23.15 16.6927H22.85ZM19 12.8249C21.1257 12.8249 22.85 14.556 22.85 16.6927H23.15C23.15 14.3915 21.2926 12.5249 19 12.5249V12.8249ZM18.15 13.6794C18.15 13.2068 18.5312 12.8249 19 12.8249V12.5249C18.3642 12.5249 17.85 13.0424 17.85 13.6794H18.15Z" fill="white"/>
<path fill-rule="evenodd" clip-rule="evenodd" d="M10.7994 3.93763C10.4034 3.9364 10.0282 4.17256 9.87129 4.56272L5.37317 15.7455C5.16706 16.2578 5.41542 16.8418 5.92717 17.0495C6.43892 17.2572 7.02143 17.0104 7.22753 16.498L8.36128 13.6794H13.2375L14.3713 16.498C14.5774 17.0104 15.1599 17.2572 15.6716 17.0495C16.1834 16.8418 16.4318 16.2578 16.2257 15.7455L11.7275 4.56272C11.5706 4.17256 11.1954 3.9364 10.7994 3.93763ZM10.7994 7.61799L9.16933 11.6705H12.4295L10.7994 7.61799Z" fill="#666666"/>
<path d="M9.87129 4.56272L10.0105 4.6187V4.6187L9.87129 4.56272ZM10.7994 3.93763L10.7989 4.08763L10.7999 4.08763L10.7994 3.93763ZM5.37317 15.7455L5.234 15.6895L5.37317 15.7455ZM5.92717 17.0495L5.87076 17.1885L5.92717 17.0495ZM7.22753 16.498L7.08837 16.442L7.22753 16.498ZM8.36128 13.6794V13.5294H8.25994L8.22212 13.6234L8.36128 13.6794ZM13.2375 13.6794L13.3767 13.6234L13.3389 13.5294H13.2375V13.6794ZM14.3713 16.498L14.5105 16.442L14.3713 16.498ZM15.6716 17.0495L15.6152 16.9105L15.6716 17.0495ZM16.2257 15.7455L16.3648 15.6895L16.2257 15.7455ZM11.7275 4.56272L11.5884 4.6187V4.6187L11.7275 4.56272ZM10.7994 7.61799L10.9386 7.56201L10.7994 7.21604L10.6602 7.56201L10.7994 7.61799ZM9.16933 11.6705L9.03017 11.6145L8.94731 11.8205H9.16933V11.6705ZM12.4295 11.6705V11.8205H12.6515L12.5687 11.6145L12.4295 11.6705ZM10.0105 4.6187C10.1437 4.28744 10.4622 4.08659 10.7989 4.08763L10.7999 3.78763C10.3446 3.78622 9.91275 4.05768 9.73212 4.50674L10.0105 4.6187ZM5.51233 15.8014L10.0105 4.6187L9.73212 4.50674L5.234 15.6895L5.51233 15.8014ZM5.98357 16.9105C5.54831 16.7339 5.33712 16.237 5.51233 15.8014L5.234 15.6895C4.99701 16.2787 5.28253 16.9498 5.87076 17.1885L5.98357 16.9105ZM7.08837 16.442C6.91329 16.8773 6.41851 17.087 5.98357 16.9105L5.87076 17.1885C6.45933 17.4273 7.12956 17.1435 7.36669 16.554L7.08837 16.442ZM8.22212 13.6234L7.08837 16.442L7.36669 16.554L8.50044 13.7354L8.22212 13.6234ZM13.2375 13.5294H8.36128V13.8294H13.2375V13.5294ZM14.5105 16.442L13.3767 13.6234L13.0984 13.7354L14.2321 16.554L14.5105 16.442ZM15.6152 16.9105C15.1803 17.087 14.6855 16.8773 14.5105 16.442L14.2321 16.554C14.4693 17.1435 15.1395 17.4273 15.7281 17.1885L15.6152 16.9105ZM16.0865 15.8014C16.2617 16.237 16.0505 16.7339 15.6152 16.9105L15.7281 17.1885C16.3163 16.9498 16.6018 16.2787 16.3648 15.6895L16.0865 15.8014ZM11.5884 4.6187L16.0865 15.8014L16.3648 15.6895L11.8667 4.50674L11.5884 4.6187ZM10.7999 4.08763C11.1366 4.08659 11.4551 4.28744 11.5884 4.6187L11.8667 4.50674C11.6861 4.05768 11.2542 3.78622 10.7989 3.78763L10.7999 4.08763ZM10.6602 7.56201L9.03017 11.6145L9.30849 11.7265L10.9386 7.67396L10.6602 7.56201ZM9.16933 11.8205H12.4295V11.5205H9.16933V11.8205ZM12.5687 11.6145L10.9386 7.56201L10.6602 7.67396L12.2903 11.7265L12.5687 11.6145Z" fill="white"/>
</svg>
