<svg width="24" height="24" viewBox="0 0 24 24" fill="none" xmlns="http://www.w3.org/2000/svg">
<path d="M21.2932 16.4733L19.3949 15.3733L21.0741 14.9333C21.4392 14.86 21.6582 14.42 21.5852 14.0533C21.5122 13.6867 21.0741 13.4667 20.7091 13.54L17.8618 14.2733C17.7887 14.2733 17.7157 14.3467 17.6427 14.42L13.5542 12L17.7157 9.58C17.7887 9.65333 17.8618 9.65333 17.9348 9.72667L20.7821 10.46C21.1472 10.5333 21.5852 10.3133 21.6582 9.94667C21.7312 9.58 21.5122 9.14 21.1472 9.06667L19.3949 8.62667L21.2932 7.52667C21.6582 7.30667 21.7312 6.86667 21.5852 6.5C21.3662 6.13333 20.9281 6.06 20.5631 6.20667L18.6649 7.30667L19.1029 5.62C19.1759 5.25333 18.9569 4.81333 18.5918 4.74C18.2268 4.66667 17.7887 4.88667 17.7157 5.25333L16.9857 8.11333V8.40667L12.8241 10.7533V5.91333C12.8972 5.91333 12.9702 5.84 13.0432 5.76667L15.0874 3.71333C15.3795 3.42 15.3795 2.98 15.0874 2.68667C14.7954 2.39333 14.3573 2.39333 14.0653 2.68667L12.8241 3.93333V1.73333C12.8241 1.29333 12.5321 1 12.0941 1C11.656 1 11.364 1.29333 11.364 1.73333V3.93333L10.1228 2.68667C9.83078 2.39333 9.39273 2.39333 9.1007 2.68667C8.80866 2.98 8.80866 3.42 9.1007 3.71333L11.1449 5.76667C11.218 5.84 11.291 5.91333 11.364 5.91333V10.68L7.20247 8.33333V8.04L6.47238 5.18C6.32636 4.88667 5.96132 4.59333 5.59627 4.74C5.15822 4.81333 4.93919 5.25333 5.0122 5.62L5.52326 7.30667L3.62503 6.20667C3.25999 6.06 2.82194 6.13333 2.60291 6.5C2.38388 6.86667 2.5299 7.30667 2.89494 7.52667L4.79317 8.62667L3.04096 9.06667C2.67592 9.14 2.45689 9.58 2.5299 9.94667C2.60291 10.3133 3.04096 10.5333 3.40601 10.46L6.25335 9.72667C6.32636 9.72667 6.39937 9.65333 6.47238 9.58L10.6339 12L6.47238 14.42C6.39937 14.3467 6.32636 14.3467 6.25335 14.2733L3.40601 13.54C3.04096 13.4667 2.60291 13.6867 2.5299 14.0533C2.45689 14.42 2.67592 14.86 3.04096 14.9333L4.79317 15.3733L2.89494 16.4733C2.5299 16.6933 2.38388 17.1333 2.60291 17.5C2.82194 17.8667 3.25999 17.94 3.62503 17.7933L5.52326 16.6933L5.08521 18.38C5.0122 18.7467 5.23123 19.1867 5.59627 19.26C5.96132 19.3333 6.39937 19.1133 6.47238 18.7467L7.20247 15.8867V15.5933L11.364 13.1733V17.94C11.291 17.94 11.218 18.0133 11.1449 18.0867L9.1007 20.14C8.80866 20.4333 8.80866 20.8733 9.1007 21.1667C9.39273 21.46 9.83078 21.46 10.1228 21.1667L11.364 20.0667V22.2667C11.364 22.7067 11.656 23 12.0941 23C12.5321 23 12.8241 22.7067 12.8241 22.2667V20.0667L14.0653 21.3133C14.3573 21.6067 14.7954 21.6067 15.0874 21.3133C15.3795 21.02 15.3795 20.58 15.0874 20.2867L13.0432 18.2333C12.9702 18.16 12.8972 18.0867 12.8241 18.0867V13.32L16.9857 15.74V16.0333L17.7157 18.8933C17.7887 19.26 18.2268 19.48 18.5918 19.4067C18.9569 19.3333 19.1759 18.8933 19.1029 18.5267L18.6649 16.6933L20.5631 17.7933C20.9281 18.0133 21.3662 17.8667 21.5852 17.5C21.8042 17.1333 21.6582 16.6933 21.2932 16.4733Z" fill="#666666"/>
</svg>
