<svg width="30" height="24" viewBox="0 0 30 24" fill="none" xmlns="http://www.w3.org/2000/svg">
<path d="M21.2932 16.4612L19.395 15.362L21.0742 14.9223C21.4392 14.849 21.6582 14.4093 21.5852 14.0429C21.5122 13.6766 21.0742 13.4567 20.7091 13.53L17.8618 14.2628C17.7888 14.2628 17.7158 14.3361 17.6428 14.4093L13.5543 11.9911L17.7158 9.57292C17.7888 9.6462 17.8618 9.6462 17.9348 9.71948L20.7821 10.4523C21.1472 10.5256 21.5852 10.3057 21.6582 9.93932C21.7313 9.57292 21.5122 9.13325 21.1472 9.05997L19.395 8.62029L21.2932 7.52111C21.6582 7.30127 21.7313 6.8616 21.5852 6.4952C21.3662 6.1288 20.9282 6.05553 20.5631 6.20208L18.6649 7.30127L19.1029 5.61585C19.1759 5.24946 18.9569 4.80978 18.5919 4.7365C18.2268 4.66322 17.7888 4.88306 17.7158 5.24946L16.9857 8.10734V8.40046L12.8242 10.7454V5.90897C12.8972 5.90897 12.9702 5.83569 13.0432 5.76241L15.0874 3.71059C15.3795 3.41748 15.3795 2.9778 15.0874 2.68469C14.7954 2.39157 14.3573 2.39157 14.0653 2.68469L12.8242 3.93043V1.73206C12.8242 1.29238 12.5321 0.999268 12.0941 0.999268C11.656 0.999268 11.364 1.29238 11.364 1.73206V3.93043L10.1228 2.68469C9.83079 2.39157 9.39274 2.39157 9.10071 2.68469C8.80867 2.9778 8.80867 3.41748 9.10071 3.71059L11.145 5.76241C11.218 5.83569 11.291 5.90897 11.364 5.90897V10.6721L7.20247 8.32718V8.03406L6.47238 5.17618C6.32636 4.88306 5.96132 4.58994 5.59628 4.7365C5.15822 4.80978 4.9392 5.24946 5.0122 5.61585L5.52327 7.30127L3.62503 6.20208C3.25999 6.05553 2.82194 6.1288 2.60291 6.4952C2.38388 6.8616 2.5299 7.30127 2.89494 7.52111L4.79318 8.62029L3.04096 9.05997C2.67592 9.13325 2.45689 9.57292 2.5299 9.93932C2.60291 10.3057 3.04096 10.5256 3.40601 10.4523L6.25336 9.71948C6.32637 9.71948 6.39937 9.6462 6.47238 9.57292L10.6339 11.9911L6.47238 14.4093C6.39937 14.3361 6.32637 14.3361 6.25336 14.2628L3.40601 13.53C3.04096 13.4567 2.60291 13.6766 2.5299 14.0429C2.45689 14.4093 2.67592 14.849 3.04096 14.9223L4.79318 15.362L2.89494 16.4612C2.5299 16.681 2.38388 17.1207 2.60291 17.4871C2.82194 17.8535 3.25999 17.9267 3.62503 17.7802L5.52327 16.681L5.08521 18.3664C5.0122 18.7328 5.23123 19.1725 5.59628 19.2458C5.96132 19.319 6.39937 19.0992 6.47238 18.7328L7.20247 15.8749V15.5818L11.364 13.1636V17.9267C11.291 17.9267 11.218 18 11.145 18.0733L9.10071 20.1251C8.80867 20.4182 8.80867 20.8579 9.10071 21.151C9.39274 21.4441 9.83079 21.4441 10.1228 21.151L11.364 20.0518V22.2502C11.364 22.6899 11.656 22.983 12.0941 22.983C12.5321 22.983 12.8242 22.6899 12.8242 22.2502V20.0518L14.0653 21.2976C14.3573 21.5907 14.7954 21.5907 15.0874 21.2976C15.3795 21.0045 15.3795 20.5648 15.0874 20.2717L13.0432 18.2199C12.9702 18.1466 12.8972 18.0733 12.8242 18.0733V13.3102L16.9857 15.7284V16.0215L17.7158 18.8794C17.7888 19.2458 18.2268 19.4656 18.5919 19.3923C18.9569 19.319 19.1759 18.8794 19.1029 18.513L18.6649 16.681L20.5631 17.7802C20.9282 18 21.3662 17.8535 21.5852 17.4871C21.8043 17.1207 21.6582 16.681 21.2932 16.4612Z" fill="#1696FF"/>
<path fill-rule="evenodd" clip-rule="evenodd" d="M30 19.9852V24H26L30 19.9852Z" fill="#1696FF"/>
</svg>
