<svg width="24" height="24" viewBox="0 0 24 24" fill="none" xmlns="http://www.w3.org/2000/svg">
<ellipse cx="11.9514" cy="12.0001" rx="5.47567" ry="5.5" stroke="#666666" stroke-width="1.7"/>
<path fill-rule="evenodd" clip-rule="evenodd" d="M11.9513 1C11.4473 1 11.0387 1.40859 11.0387 1.91261V3.75406C11.0387 4.25808 11.4473 4.66667 11.9513 4.66667C12.4553 4.66667 12.8639 4.25808 12.8639 3.75406V1.91261C12.8639 1.40859 12.4553 1 11.9513 1ZM19.6951 4.22183C19.3387 3.86385 18.7609 3.86385 18.4045 4.22183L17.1138 5.51818C16.7574 5.87616 16.7574 6.45656 17.1138 6.81454C17.4702 7.17252 18.0481 7.17252 18.4045 6.81454L19.6951 5.51818C20.0515 5.1602 20.0515 4.57981 19.6951 4.22183ZM21.986 11.0834C22.4922 11.0834 22.9026 11.4939 22.9026 12.0001C22.9026 12.5064 22.4922 12.9168 21.986 12.9168H20.1689C19.6626 12.9168 19.2522 12.5064 19.2522 12.0001C19.2522 11.4939 19.6626 11.0834 20.1689 11.0834H21.986ZM19.6951 19.7782C20.0515 19.4202 20.0515 18.8398 19.6951 18.4818L18.4045 17.1855C18.0481 16.8275 17.4702 16.8275 17.1138 17.1855C16.7574 17.5435 16.7574 18.1239 17.1138 18.4818L18.4045 19.7782C18.7609 20.1362 19.3387 20.1362 19.6951 19.7782ZM12.864 22.0874C12.864 22.5914 12.4554 23 11.9514 23C11.4473 23 11.0387 22.5914 11.0387 22.0874V20.246C11.0387 19.7419 11.4473 19.3333 11.9514 19.3333C12.4554 19.3333 12.864 19.7419 12.864 20.246V22.0874ZM4.20755 19.7781C4.56395 20.136 5.14178 20.136 5.49818 19.7781L6.78881 18.4817C7.1452 18.1237 7.1452 17.5433 6.78881 17.1853C6.43241 16.8274 5.85458 16.8274 5.49818 17.1853L4.20755 18.4817C3.85115 18.8397 3.85115 19.4201 4.20755 19.7781ZM1.91667 12.9167C1.41041 12.9167 1 12.5063 1 12C1 11.4937 1.41041 11.0833 1.91667 11.0833H3.73377C4.24004 11.0833 4.65044 11.4937 4.65044 12C4.65044 12.5063 4.24004 12.9167 3.73377 12.9167H1.91667ZM4.20755 4.22181C3.85115 4.57979 3.85115 5.16018 4.20755 5.51816L5.49818 6.81452C5.85457 7.1725 6.43241 7.1725 6.78881 6.81452C7.1452 6.45654 7.1452 5.87614 6.78881 5.51816L5.49818 4.22181C5.14178 3.86383 4.56395 3.86383 4.20755 4.22181Z" fill="#666666"/>
</svg>
