<svg width="30" height="25" viewBox="0 0 30 25" fill="none" xmlns="http://www.w3.org/2000/svg">
<ellipse cx="11.9514" cy="12" rx="5.47567" ry="5.50001" stroke="#FFA41F" stroke-width="1.7"/>
<path fill-rule="evenodd" clip-rule="evenodd" d="M11.9513 1C11.4473 1 11.0387 1.40859 11.0387 1.91261V3.75407C11.0387 4.25809 11.4473 4.66668 11.9513 4.66668C12.4554 4.66668 12.8639 4.25809 12.8639 3.75407V1.91261C12.8639 1.40859 12.4554 1 11.9513 1ZM19.6951 4.22181C19.3387 3.86383 18.7609 3.86383 18.4045 4.22181L17.1139 5.51817C16.7575 5.87615 16.7575 6.45656 17.1139 6.81454C17.4703 7.17252 18.0481 7.17252 18.4045 6.81454L19.6951 5.51817C20.0515 5.16019 20.0515 4.57979 19.6951 4.22181ZM21.986 11.0833C22.4923 11.0833 22.9027 11.4937 22.9027 11.9999C22.9027 12.5062 22.4923 12.9166 21.986 12.9166H20.1689C19.6626 12.9166 19.2522 12.5062 19.2522 11.9999C19.2522 11.4937 19.6626 11.0833 20.1689 11.0833H21.986ZM19.6951 19.7782C20.0515 19.4202 20.0515 18.8398 19.6951 18.4818L18.4045 17.1855C18.0481 16.8275 17.4702 16.8275 17.1138 17.1855C16.7574 17.5434 16.7574 18.1238 17.1138 18.4818L18.4045 19.7782C18.7609 20.1362 19.3387 20.1362 19.6951 19.7782ZM12.8639 22.0874C12.8639 22.5914 12.4554 23 11.9513 23C11.4473 23 11.0387 22.5914 11.0387 22.0874V20.246C11.0387 19.742 11.4473 19.3334 11.9513 19.3334C12.4554 19.3334 12.8639 19.742 12.8639 20.246V22.0874ZM4.20755 19.7782C4.56395 20.1362 5.14178 20.1362 5.49818 19.7782L6.7888 18.4819C7.1452 18.1239 7.1452 17.5435 6.7888 17.1855C6.43241 16.8275 5.85457 16.8275 5.49818 17.1855L4.20755 18.4819C3.85115 18.8398 3.85115 19.4202 4.20755 19.7782ZM1.91666 12.9166C1.4104 12.9166 1 12.5062 1 12C1 11.4937 1.4104 11.0833 1.91666 11.0833H3.73378C4.24004 11.0833 4.65044 11.4937 4.65044 12C4.65044 12.5062 4.24004 12.9166 3.73378 12.9166H1.91666ZM4.20758 4.22184C3.85118 4.57982 3.85118 5.16022 4.20758 5.5182L5.4982 6.81457C5.8546 7.17255 6.43244 7.17255 6.78883 6.81457C7.14523 6.45658 7.14523 5.87618 6.78883 5.5182L5.4982 4.22184C5.14181 3.86385 4.56397 3.86385 4.20758 4.22184Z" fill="#FFA41F"/>
<path fill-rule="evenodd" clip-rule="evenodd" d="M30 20V24.0178H26L30 20Z" fill="#FFA41F"/>
</svg>
