<svg width="24" height="24" viewBox="0 0 24 24" fill="none" xmlns="http://www.w3.org/2000/svg">
<path fill-rule="evenodd" clip-rule="evenodd" d="M11.6825 23C6.90024 23 3 19.0824 3 14.2789C3 8.32641 9.06398 2.81689 10.9107 1.28032C11.3518 0.90656 11.9995 0.90656 12.4405 1.28032C14.3011 2.83074 20.3513 8.32641 20.3513 14.2789C20.365 19.0963 16.4786 23 11.6825 23ZM11.6825 2.56774C10.1389 3.88282 4.47465 9.0601 4.47465 14.2928C4.47465 18.2934 7.71336 21.5326 11.6825 21.5326C15.6516 21.5326 18.8903 18.2795 18.8903 14.2928C18.9041 9.04626 13.2261 3.86898 11.6825 2.56774ZM10.0563 19.8022C10.1252 19.8161 10.2079 19.8299 10.2768 19.8299C10.58 19.8299 10.8694 19.6223 10.9796 19.3039C11.1037 18.9163 10.8832 18.501 10.4973 18.3764C8.85724 17.8642 7.61689 16.4799 7.27234 14.7911C7.18965 14.4035 6.80376 14.1404 6.40409 14.2235C6.01821 14.3066 5.75635 14.6942 5.83904 15.0956C6.29384 17.3105 7.9063 19.1101 10.0563 19.8022Z" fill="#666666"/>
</svg>
