<svg width="24" height="24" viewBox="0 0 24 24" fill="none" xmlns="http://www.w3.org/2000/svg">
<path fill-rule="evenodd" clip-rule="evenodd" d="M12 23C7.20923 23.0007 2.96918 19.9839 1.51769 15.5418C0.0661998 11.0997 1.73727 6.25452 5.64893 3.56341C6.0497 3.28626 6.57198 3.23819 7.01906 3.43729C7.46613 3.6364 7.77006 4.05244 7.81638 4.52869C7.86269 5.00495 7.64434 5.46907 7.24357 5.74622C4.30726 7.76275 3.05107 11.3971 4.13831 14.7301C5.22555 18.0632 8.40589 20.3275 12 20.3275C15.5941 20.3275 18.7744 18.0632 19.8617 14.7301C20.9489 11.3971 19.6927 7.76275 16.7564 5.74622C16.3557 5.46907 16.1373 5.00495 16.1836 4.52869C16.2299 4.05244 16.5339 3.6364 16.9809 3.43729C17.428 3.23819 17.9503 3.28626 18.3511 3.56341C22.2627 6.25452 23.9338 11.0997 22.4823 15.5418C21.0308 19.9839 16.7908 23.0007 12 23Z" fill="#1696FF" stroke="white"/>
<path fill-rule="evenodd" clip-rule="evenodd" d="M10.781 10.1184V2.30263C10.781 1.58321 11.2994 1 11.9389 1C12.5784 1 13.0968 1.58321 13.0968 2.30263V10.1184C13.0968 10.8378 12.5784 11.4211 11.9389 11.4211C11.2994 11.4211 10.781 10.8378 10.781 10.1184Z" fill="#1696FF" stroke="white" stroke-width="0.5"/>
</svg>
