<svg width="289" height="253" viewBox="0 0 289 253" fill="none" xmlns="http://www.w3.org/2000/svg">
    <path fill-rule="evenodd" clip-rule="evenodd" d="M143.975 0H145.975V20.0889H143.975V0Z" fill="#1696FF" />
    <path fill-rule="evenodd" clip-rule="evenodd"
        d="M155.059 0.359131L157.054 0.499264L155.659 20.5392L153.664 20.3991L155.059 0.359131Z" fill="#1696FF" />
    <path fill-rule="evenodd" clip-rule="evenodd"
        d="M166.257 1.58301L168.232 1.89727L165.104 21.7388L163.128 21.4245L166.257 1.58301Z" fill="#1696FF" />
    <path fill-rule="evenodd" clip-rule="evenodd"
        d="M177.152 3.65942L179.101 4.11133L174.602 23.6854L172.653 23.2335L177.152 3.65942Z" fill="#1696FF" />
    <path fill-rule="evenodd" clip-rule="evenodd"
        d="M188.028 6.6084L189.93 7.22918L183.749 26.3348L181.847 25.7141L188.028 6.6084Z" fill="#1696FF" />
    <path fill-rule="evenodd" clip-rule="evenodd"
        d="M198.472 10.3523L200.327 11.1048L192.835 29.7309L190.98 28.9784L198.472 10.3523Z" fill="#1696FF" />
    <path fill-rule="evenodd" clip-rule="evenodd"
        d="M208.763 14.9553L210.545 15.8673L201.465 33.7667L199.683 32.8546L208.763 14.9553Z" fill="#1696FF" />
    <path fill-rule="evenodd" clip-rule="evenodd"
        d="M218.506 20.2766L220.22 21.3113L209.919 38.5308L208.205 37.4962L218.506 20.2766Z" fill="#1696FF" />
    <path fill-rule="evenodd" clip-rule="evenodd"
        d="M48.9775 252.45L47.4913 251.106L60.8739 236.177L62.3601 237.521L48.9775 252.45Z" fill="#1696FF" />
    <path fill-rule="evenodd" clip-rule="evenodd"
        d="M40.8752 244.59L39.5112 243.121L54.1383 229.42L55.5023 230.889L40.8752 244.59Z" fill="#1696FF" />
    <path fill-rule="evenodd" clip-rule="evenodd"
        d="M33.5317 236.242L32.2731 234.681L47.816 222.039L49.0747 223.6L33.5317 236.242Z" fill="#1696FF" />
    <path fill-rule="evenodd" clip-rule="evenodd"
        d="M26.7372 227.218L25.6188 225.552L42.1996 214.319L43.318 215.984L26.7372 227.218Z" fill="#1696FF" />
    <path fill-rule="evenodd" clip-rule="evenodd"
        d="M20.7671 217.83L19.7671 216.09L37.0876 206.046L38.0876 207.785L20.7671 217.83Z" fill="#1696FF" />
    <path fill-rule="evenodd" clip-rule="evenodd"
        d="M15.5348 208.009L14.658 206.203L32.6339 197.397L33.5107 199.202L15.5348 208.009Z" fill="#1696FF" />
    <path fill-rule="evenodd" clip-rule="evenodd"
        d="M10.991 197.656L10.2742 195.78L28.9459 188.581L29.6626 190.456L10.991 197.656Z" fill="#1696FF" />
    <path fill-rule="evenodd" clip-rule="evenodd"
        d="M7.3335 187.14L6.74875 185.219L25.8749 179.345L26.4596 181.266L7.3335 187.14Z" fill="#1696FF" />
    <path fill-rule="evenodd" clip-rule="evenodd"
        d="M4.43848 176.205L4.02265 174.24L23.5856 170.063L24.0014 172.028L4.43848 176.205Z" fill="#1696FF" />
    <path fill-rule="evenodd" clip-rule="evenodd"
        d="M2.44409 165.248L2.16575 163.258L21.9711 160.462L22.2495 162.452L2.44409 165.248Z" fill="#1696FF" />
    <path fill-rule="evenodd" clip-rule="evenodd"
        d="M1.26758 153.995L1.16291 151.989L21.1355 150.937L21.2402 152.944L1.26758 153.995Z" fill="#1696FF" />
    <path fill-rule="evenodd" clip-rule="evenodd"
        d="M0.984131 142.859L1.01904 140.85L21.016 141.201L20.9811 143.209L0.984131 142.859Z" fill="#1696FF" />
    <path fill-rule="evenodd" clip-rule="evenodd"
        d="M1.55444 131.559L1.7635 129.561L21.6539 131.661L21.4449 133.658L1.55444 131.559Z" fill="#1696FF" />
    <path fill-rule="evenodd" clip-rule="evenodd"
        d="M2.98877 120.513L3.33607 118.534L23.0322 122.023L22.6849 124.001L2.98877 120.513Z" fill="#1696FF" />
    <path fill-rule="evenodd" clip-rule="evenodd"
        d="M5.26562 109.611L5.74947 107.662L25.1554 112.522L24.6715 114.471L5.26562 109.611Z" fill="#1696FF" />
    <path fill-rule="evenodd" clip-rule="evenodd"
        d="M8.41016 98.7465L9.06129 96.847L27.9717 103.387L27.3205 105.287L8.41016 98.7465Z" fill="#1696FF" />
    <path fill-rule="evenodd" clip-rule="evenodd"
        d="M12.3381 88.3293L13.1196 86.4802L31.5297 94.3295L30.7483 96.1787L12.3381 88.3293Z" fill="#1696FF" />
    <path fill-rule="evenodd" clip-rule="evenodd"
        d="M17.1178 78.0839L18.0567 76.3101L35.7157 85.7412L34.7768 87.5149L17.1178 78.0839Z" fill="#1696FF" />
    <path fill-rule="evenodd" clip-rule="evenodd"
        d="M22.6023 68.4021L23.6621 66.6985L40.6231 77.344L39.5633 79.0476L22.6023 68.4021Z" fill="#1696FF" />
    <path fill-rule="evenodd" clip-rule="evenodd"
        d="M28.9021 59.0223L30.1057 57.418L46.0784 69.5078L44.8748 71.1122L28.9021 59.0223Z" fill="#1696FF" />
    <path fill-rule="evenodd" clip-rule="evenodd"
        d="M35.8113 50.3088L37.1234 48.7927L52.2176 61.9722L50.9055 63.4883L35.8113 50.3088Z" fill="#1696FF" />
    <path fill-rule="evenodd" clip-rule="evenodd"
        d="M43.4797 42.0206L44.9184 40.6251L58.8116 55.0759L57.3729 56.4714L43.4797 42.0206Z" fill="#1696FF" />
    <path fill-rule="evenodd" clip-rule="evenodd"
        d="M51.6473 34.485L53.1794 33.1937L66.0352 48.5826L64.5031 49.8739L51.6473 34.485Z" fill="#1696FF" />
    <path fill-rule="evenodd" clip-rule="evenodd"
        d="M60.3679 27.6038L61.986 26.423L73.7416 42.6753L72.1236 43.8561L60.3679 27.6038Z" fill="#1696FF" />
    <path fill-rule="evenodd" clip-rule="evenodd"
        d="M69.7295 21.3113L71.4438 20.2766L81.7446 37.4962L80.0302 38.5308L69.7295 21.3113Z" fill="#1696FF" />
    <path fill-rule="evenodd" clip-rule="evenodd"
        d="M79.4048 15.8673L81.1868 14.9553L90.2666 32.8546L88.4846 33.7666L79.4048 15.8673Z" fill="#1696FF" />
    <path fill-rule="evenodd" clip-rule="evenodd"
        d="M89.6228 11.1049L91.4772 10.3523L98.9693 28.9784L97.1149 29.731L89.6228 11.1049Z" fill="#1696FF" />
    <path fill-rule="evenodd" clip-rule="evenodd"
        d="M100.02 7.22925L101.922 6.60847L108.102 25.7141L106.2 26.3349L100.02 7.22925Z" fill="#1696FF" />
    <path fill-rule="evenodd" clip-rule="evenodd"
        d="M110.848 4.11145L112.797 3.65955L117.296 23.2336L115.347 23.6855L110.848 4.11145Z" fill="#1696FF" />
    <path fill-rule="evenodd" clip-rule="evenodd"
        d="M121.717 1.89734L123.693 1.58308L126.821 21.4246L124.846 21.7388L121.717 1.89734Z" fill="#1696FF" />
    <path fill-rule="evenodd" clip-rule="evenodd"
        d="M132.896 0.499268L134.891 0.359135L136.286 20.3991L134.291 20.5392L132.896 0.499268Z" fill="#1696FF" />
    <path fill-rule="evenodd" clip-rule="evenodd"
        d="M266.264 67.1499L267.324 68.8535L250.363 79.4991L249.303 77.7954L266.264 67.1499Z" fill="#1696FF" />
    <path fill-rule="evenodd" clip-rule="evenodd"
        d="M271.869 76.7615L272.808 78.5352L255.149 87.9664L254.21 86.1927L271.869 76.7615Z" fill="#1696FF" />
    <path fill-rule="evenodd" clip-rule="evenodd"
        d="M276.806 86.9315L277.588 88.7807L259.178 96.6301L258.396 94.7809L276.806 86.9315Z" fill="#1696FF" />
    <path fill-rule="evenodd" clip-rule="evenodd"
        d="M280.865 97.2983L281.516 99.1978L262.605 105.738L261.954 103.839L280.865 97.2983Z" fill="#1696FF" />
    <path fill-rule="evenodd" clip-rule="evenodd"
        d="M284.176 108.113L284.66 110.062L265.254 114.922L264.77 112.973L284.176 108.113Z" fill="#1696FF" />
    <path fill-rule="evenodd" clip-rule="evenodd"
        d="M286.59 118.986L286.937 120.964L267.241 124.452L266.893 122.474L286.59 118.986Z" fill="#1696FF" />
    <path fill-rule="evenodd" clip-rule="evenodd"
        d="M288.162 130.012L288.371 132.01L268.481 134.11L268.272 132.112L288.162 130.012Z" fill="#1696FF" />
    <path fill-rule="evenodd" clip-rule="evenodd"
        d="M288.907 141.302L288.942 143.31L268.945 143.661L268.91 141.652L288.907 141.302Z" fill="#1696FF" />
    <path fill-rule="evenodd" clip-rule="evenodd"
        d="M288.763 152.44L288.658 154.446L268.686 153.395L268.79 151.389L288.763 152.44Z" fill="#1696FF" />
    <path fill-rule="evenodd" clip-rule="evenodd"
        d="M287.76 163.71L287.482 165.699L267.676 162.903L267.955 160.914L287.76 163.71Z" fill="#1696FF" />
    <path fill-rule="evenodd" clip-rule="evenodd"
        d="M285.903 174.692L285.487 176.657L265.924 172.48L266.34 170.515L285.903 174.692Z" fill="#1696FF" />
    <path fill-rule="evenodd" clip-rule="evenodd"
        d="M283.177 185.67L282.592 187.591L263.466 181.718L264.051 179.797L283.177 185.67Z" fill="#1696FF" />
    <path fill-rule="evenodd" clip-rule="evenodd"
        d="M279.652 196.232L278.935 198.107L260.263 190.908L260.98 189.032L279.652 196.232Z" fill="#1696FF" />
    <path fill-rule="evenodd" clip-rule="evenodd"
        d="M275.268 206.654L274.391 208.46L256.415 199.654L257.292 197.848L275.268 206.654Z" fill="#1696FF" />
    <path fill-rule="evenodd" clip-rule="evenodd"
        d="M270.159 216.542L269.159 218.281L251.838 208.237L252.838 206.497L270.159 216.542Z" fill="#1696FF" />
    <path fill-rule="evenodd" clip-rule="evenodd"
        d="M264.307 226.004L263.189 227.669L246.608 216.436L247.726 214.77L264.307 226.004Z" fill="#1696FF" />
    <path fill-rule="evenodd" clip-rule="evenodd"
        d="M257.653 235.133L256.394 236.694L240.851 224.052L242.11 222.49L257.653 235.133Z" fill="#1696FF" />
    <path fill-rule="evenodd" clip-rule="evenodd"
        d="M250.415 243.572L249.051 245.041L234.423 231.341L235.787 229.871L250.415 243.572Z" fill="#1696FF" />
    <path fill-rule="evenodd" clip-rule="evenodd"
        d="M242.434 251.558L240.948 252.902L227.566 237.973L229.052 236.629L242.434 251.558Z" fill="#1696FF" />
    <path fill-rule="evenodd" clip-rule="evenodd"
        d="M227.94 26.8743L229.558 28.0551L217.802 44.3073L216.184 43.1265L227.94 26.8743Z" fill="#1696FF" />
    <path fill-rule="evenodd" clip-rule="evenodd"
        d="M236.746 33.645L238.278 34.9363L225.423 50.3253L223.891 49.034L236.746 33.645Z" fill="#1696FF" />
    <path fill-rule="evenodd" clip-rule="evenodd"
        d="M245.007 41.0765L246.446 42.472L232.553 56.9227L231.114 55.5272L245.007 41.0765Z" fill="#1696FF" />
    <path fill-rule="evenodd" clip-rule="evenodd"
        d="M252.802 49.2441L254.114 50.7603L239.02 63.9398L237.708 62.4236L252.802 49.2441Z" fill="#1696FF" />
    <path fill-rule="evenodd" clip-rule="evenodd"
        d="M259.82 57.8694L261.024 59.4738L245.051 71.5635L243.847 69.9592L259.82 57.8694Z" fill="#1696FF" />
</svg>